<svg fill="#000000" width="800px" height="800px" viewBox="-1.6 -1.6 19.20 19.20" xmlns="http://www.w3.org/2000/svg" stroke="#000000" stroke-width="0.00016">

<g shape-rendering="geometricPrecision" id="SVGRepo_bgCarrier" stroke-width="0" transform="translate(4.8,4.8), scale(0.4)">

    <rect shape-rendering="geometricPrecision" x="-1.6" y="-1.6" width="19.20" height="19.20" rx="9.6" fill="#000000" strokewidth="0"/>

</g>

<g shape-rendering="geometricPrecision" id="SVGRepo_tracerCarrier" stroke-linecap="round" stroke-linejoin="round"/>

<g shape-rendering="geometricPrecision" id="SVGRepo_iconCarrier"> <path d="M0 8c0-4.418 3.59-8 8-8 4.418 0 8 3.59 8 8 0 4.418-3.59 8-8 8-4.418 0-8-3.59-8-8zm2 0c0 3.307 2.686 6 6 6 3.307 0 6-2.686 6-6 0-3.307-2.686-6-6-6-3.307 0-6 2.686-6 6zm2 0c0-2.21 1.795-4 4-4 2.21 0 4 1.795 4 4 0 2.21-1.795 4-4 4-2.21 0-4-1.795-4-4zm2 0c0 1.112.895 2 2 2 1.112 0 2-.895 2-2 0-1.112-.895-2-2-2-1.112 0-2 .895-2 2z" fill-rule="evenodd"/> </g>

</svg>